<?xml version="1.0" encoding="iso-8859-1"?>
<svg version="1.1" id="Layer_1" xmlns="http://www.w3.org/2000/svg" xmlns:xlink="http://www.w3.org/1999/xlink" x="0px" y="0px"
	 viewBox="0 0 512 512" style="enable-background:new 0 0 512 512;" xml:space="preserve">
<g>
	<g>
		<path d="M510.366,444.46l-31.047-41.396V187.915c0-22.526-18.325-40.851-40.851-40.851h-78.979c-4.513,0-8.17,3.657-8.17,8.17
			s3.657,8.17,8.17,8.17h78.979c13.515,0,24.511,10.996,24.511,24.511v209.702H40.851c-2.571,0-4.994,1.21-6.536,3.268L1.634,444.46
			C0.573,445.874,0,447.594,0,449.362v21.787C0,493.674,18.325,512,40.851,512h430.298C493.675,512,512,493.675,512,471.149v-21.787
			C512,447.594,511.427,445.874,510.366,444.46z M44.936,413.957h422.128l20.426,27.234H24.511L44.936,413.957z M495.66,471.149
			c0,13.515-10.996,24.511-24.511,24.511H40.851c-13.515,0-24.511-10.996-24.511-24.511v-13.617H247.83v13.617
			c0,4.513,3.657,8.17,8.17,8.17c4.513,0,8.17-3.657,8.17-8.17v-13.617H495.66V471.149z"/>
	</g>
</g>
<g>
	<g>
		<path d="M152.511,147.064H73.532c-22.526,0-40.851,18.325-40.851,40.851v185.191c0,4.512,3.657,8.17,8.17,8.17
			s8.17-3.657,8.17-8.17V187.915c0-13.515,10.996-24.511,24.511-24.511h78.979c4.513,0,8.17-3.657,8.17-8.17
			S157.024,147.064,152.511,147.064z"/>
	</g>
</g>
<g>
	<g>
		<path d="M376.161,116.775L261.778,2.392c-3.192-3.19-8.364-3.19-11.555,0L135.84,116.775c-2.337,2.338-3.035,5.851-1.77,8.904
			c1.263,3.053,4.243,5.044,7.547,5.044h35.404v171.574c0,4.513,3.657,8.17,8.17,8.17h141.617c4.513,0,8.17-3.657,8.17-8.17V130.723
			h35.404c3.304,0,6.285-1.99,7.548-5.044C379.196,122.626,378.498,119.113,376.161,116.775z M326.809,114.383
			c-4.513,0-8.17,3.657-8.17,8.17v171.574H193.362V122.553c0-4.513-3.657-8.17-8.17-8.17h-23.851L256,19.724l94.659,94.659H326.809z
			"/>
	</g>
</g>
<g>
	<g>
		<circle cx="256" cy="212.426" r="8.17"/>
	</g>
</g>
<g>
	<g>
		<circle cx="217.872" cy="212.426" r="8.17"/>
	</g>
</g>
<g>
	<g>
		<circle cx="294.128" cy="212.426" r="8.17"/>
	</g>
</g>
<g>
</g>
<g>
</g>
<g>
</g>
<g>
</g>
<g>
</g>
<g>
</g>
<g>
</g>
<g>
</g>
<g>
</g>
<g>
</g>
<g>
</g>
<g>
</g>
<g>
</g>
<g>
</g>
<g>
</g>
</svg>
